<mxfile host="app.diagrams.net" modified="2021-07-30T00:34:03.093Z" agent="5.0 (Windows NT 10.0; Win64; x64) AppleWebKit/537.36 (KHTML, like Gecko) Chrome/92.0.4515.107 Safari/537.36" etag="f_isV8usI_7oCtFTiMvv" version="14.9.3" type="github">
  <diagram id="R2lEEEUBdFMjLlhIrx00" name="Page-1">
    <mxGraphModel dx="2090" dy="643" grid="1" gridSize="10" guides="1" tooltips="1" connect="1" arrows="1" fold="1" page="1" pageScale="1" pageWidth="850" pageHeight="1100" math="0" shadow="0" extFonts="Permanent Marker^https://fonts.googleapis.com/css?family=Permanent+Marker">
      <root>
        <mxCell id="0" />
        <mxCell id="1" parent="0" />
        <mxCell id="9EKVIyOOfx1yKH4zafNA-1" value="&lt;font style=&quot;font-size: 18px&quot;&gt;Trecho&lt;/font&gt;" style="rounded=0;whiteSpace=wrap;html=1;" parent="1" vertex="1">
          <mxGeometry y="370" width="220" height="60" as="geometry" />
        </mxCell>
        <mxCell id="9EKVIyOOfx1yKH4zafNA-2" value="&lt;span style=&quot;font-size: 18px&quot;&gt;Reservas&lt;/span&gt;" style="rounded=0;whiteSpace=wrap;html=1;" parent="1" vertex="1">
          <mxGeometry y="140" width="220" height="60" as="geometry" />
        </mxCell>
        <mxCell id="9EKVIyOOfx1yKH4zafNA-4" value="&lt;font style=&quot;font-size: 18px&quot;&gt;Cidades&lt;/font&gt;" style="rounded=0;whiteSpace=wrap;html=1;" parent="1" vertex="1">
          <mxGeometry x="780" y="370" width="220" height="60" as="geometry" />
        </mxCell>
        <mxCell id="9EKVIyOOfx1yKH4zafNA-5" value="&lt;span style=&quot;font-size: 18px&quot;&gt;Aeroportos&lt;/span&gt;" style="rounded=0;whiteSpace=wrap;html=1;" parent="1" vertex="1">
          <mxGeometry x="430" y="370" width="220" height="60" as="geometry" />
        </mxCell>
        <mxCell id="9EKVIyOOfx1yKH4zafNA-6" value="&lt;span style=&quot;font-size: 18px&quot;&gt;Voos&lt;/span&gt;" style="rounded=0;whiteSpace=wrap;html=1;" parent="1" vertex="1">
          <mxGeometry y="550" width="220" height="60" as="geometry" />
        </mxCell>
        <mxCell id="9EKVIyOOfx1yKH4zafNA-9" value="&lt;span style=&quot;font-size: 18px&quot;&gt;Aeronave&lt;/span&gt;" style="rounded=0;whiteSpace=wrap;html=1;" parent="1" vertex="1">
          <mxGeometry x="610" y="690" width="220" height="60" as="geometry" />
        </mxCell>
        <mxCell id="9EKVIyOOfx1yKH4zafNA-10" value="&lt;span style=&quot;font-size: 18px&quot;&gt;Assento&lt;/span&gt;" style="rounded=0;whiteSpace=wrap;html=1;" parent="1" vertex="1">
          <mxGeometry x="620" y="10" width="220" height="60" as="geometry" />
        </mxCell>
        <mxCell id="cMllE6r7DTJcGbb2FHrs-1" value="&lt;font style=&quot;font-size: 18px&quot;&gt;Código&lt;/font&gt;" style="ellipse;whiteSpace=wrap;html=1;" vertex="1" parent="1">
          <mxGeometry x="170" y="30" width="80" height="40" as="geometry" />
        </mxCell>
        <mxCell id="cMllE6r7DTJcGbb2FHrs-2" value="&lt;span style=&quot;font-size: 18px&quot;&gt;Passageiro&lt;/span&gt;" style="ellipse;whiteSpace=wrap;html=1;" vertex="1" parent="1">
          <mxGeometry x="60" y="30" width="100" height="40" as="geometry" />
        </mxCell>
        <mxCell id="cMllE6r7DTJcGbb2FHrs-3" value="" style="endArrow=none;html=1;entryX=0.5;entryY=1;entryDx=0;entryDy=0;exitX=0.5;exitY=0;exitDx=0;exitDy=0;" edge="1" parent="1" source="9EKVIyOOfx1yKH4zafNA-1" target="9EKVIyOOfx1yKH4zafNA-2">
          <mxGeometry width="50" height="50" relative="1" as="geometry">
            <mxPoint x="130" y="390" as="sourcePoint" />
            <mxPoint x="180" y="340" as="targetPoint" />
          </mxGeometry>
        </mxCell>
        <mxCell id="cMllE6r7DTJcGbb2FHrs-4" value="&lt;font style=&quot;font-size: 18px&quot;&gt;Data/hora&lt;/font&gt;" style="ellipse;whiteSpace=wrap;html=1;" vertex="1" parent="1">
          <mxGeometry x="-170" y="380" width="80" height="40" as="geometry" />
        </mxCell>
        <mxCell id="cMllE6r7DTJcGbb2FHrs-5" value="" style="endArrow=none;html=1;entryX=1;entryY=0.5;entryDx=0;entryDy=0;exitX=0;exitY=0.5;exitDx=0;exitDy=0;" edge="1" parent="1" source="9EKVIyOOfx1yKH4zafNA-1" target="cMllE6r7DTJcGbb2FHrs-4">
          <mxGeometry width="50" height="50" relative="1" as="geometry">
            <mxPoint x="130" y="390" as="sourcePoint" />
            <mxPoint x="180" y="340" as="targetPoint" />
          </mxGeometry>
        </mxCell>
        <mxCell id="cMllE6r7DTJcGbb2FHrs-6" value="&lt;font style=&quot;font-size: 18px&quot;&gt;Prazo&lt;/font&gt;" style="ellipse;whiteSpace=wrap;html=1;" vertex="1" parent="1">
          <mxGeometry x="-30" y="30" width="80" height="40" as="geometry" />
        </mxCell>
        <mxCell id="cMllE6r7DTJcGbb2FHrs-7" value="" style="endArrow=none;html=1;entryX=0.5;entryY=1;entryDx=0;entryDy=0;exitX=0.5;exitY=0;exitDx=0;exitDy=0;" edge="1" parent="1" source="9EKVIyOOfx1yKH4zafNA-2" target="cMllE6r7DTJcGbb2FHrs-6">
          <mxGeometry width="50" height="50" relative="1" as="geometry">
            <mxPoint x="130" y="390" as="sourcePoint" />
            <mxPoint x="180" y="340" as="targetPoint" />
          </mxGeometry>
        </mxCell>
        <mxCell id="cMllE6r7DTJcGbb2FHrs-8" value="" style="endArrow=none;html=1;entryX=0.5;entryY=1;entryDx=0;entryDy=0;" edge="1" parent="1" target="cMllE6r7DTJcGbb2FHrs-1">
          <mxGeometry width="50" height="50" relative="1" as="geometry">
            <mxPoint x="110" y="140" as="sourcePoint" />
            <mxPoint x="170" y="80" as="targetPoint" />
          </mxGeometry>
        </mxCell>
        <mxCell id="cMllE6r7DTJcGbb2FHrs-9" value="" style="endArrow=none;html=1;exitX=0.5;exitY=0;exitDx=0;exitDy=0;entryX=0.5;entryY=1;entryDx=0;entryDy=0;" edge="1" parent="1" source="9EKVIyOOfx1yKH4zafNA-2" target="cMllE6r7DTJcGbb2FHrs-2">
          <mxGeometry width="50" height="50" relative="1" as="geometry">
            <mxPoint x="110" y="129.9999999999999" as="sourcePoint" />
            <mxPoint x="120" y="80" as="targetPoint" />
          </mxGeometry>
        </mxCell>
        <mxCell id="cMllE6r7DTJcGbb2FHrs-10" value="&lt;font style=&quot;font-size: 18px&quot;&gt;Origem&lt;/font&gt;" style="ellipse;whiteSpace=wrap;html=1;" vertex="1" parent="1">
          <mxGeometry x="-30" y="660" width="80" height="40" as="geometry" />
        </mxCell>
        <mxCell id="cMllE6r7DTJcGbb2FHrs-11" value="&lt;font style=&quot;font-size: 18px&quot;&gt;Código&lt;/font&gt;" style="ellipse;whiteSpace=wrap;html=1;" vertex="1" parent="1">
          <mxGeometry x="170" y="660" width="80" height="40" as="geometry" />
        </mxCell>
        <mxCell id="cMllE6r7DTJcGbb2FHrs-12" value="&lt;font style=&quot;font-size: 18px&quot;&gt;Destino&lt;/font&gt;" style="ellipse;whiteSpace=wrap;html=1;" vertex="1" parent="1">
          <mxGeometry x="70" y="660" width="80" height="40" as="geometry" />
        </mxCell>
        <mxCell id="cMllE6r7DTJcGbb2FHrs-13" value="" style="endArrow=none;html=1;entryX=0.5;entryY=1;entryDx=0;entryDy=0;exitX=0.5;exitY=0;exitDx=0;exitDy=0;" edge="1" parent="1" source="cMllE6r7DTJcGbb2FHrs-10" target="9EKVIyOOfx1yKH4zafNA-6">
          <mxGeometry width="50" height="50" relative="1" as="geometry">
            <mxPoint x="-100" y="920" as="sourcePoint" />
            <mxPoint x="-50" y="870" as="targetPoint" />
          </mxGeometry>
        </mxCell>
        <mxCell id="cMllE6r7DTJcGbb2FHrs-14" value="" style="endArrow=none;html=1;entryX=0.5;entryY=1;entryDx=0;entryDy=0;exitX=0.5;exitY=0;exitDx=0;exitDy=0;" edge="1" parent="1" source="cMllE6r7DTJcGbb2FHrs-11" target="9EKVIyOOfx1yKH4zafNA-6">
          <mxGeometry width="50" height="50" relative="1" as="geometry">
            <mxPoint x="-220" y="790" as="sourcePoint" />
            <mxPoint x="-110" y="730" as="targetPoint" />
          </mxGeometry>
        </mxCell>
        <mxCell id="cMllE6r7DTJcGbb2FHrs-15" value="" style="endArrow=none;html=1;entryX=0.5;entryY=1;entryDx=0;entryDy=0;exitX=0.5;exitY=0;exitDx=0;exitDy=0;" edge="1" parent="1" source="cMllE6r7DTJcGbb2FHrs-12" target="9EKVIyOOfx1yKH4zafNA-6">
          <mxGeometry width="50" height="50" relative="1" as="geometry">
            <mxPoint x="-210" y="800" as="sourcePoint" />
            <mxPoint x="-100" y="740" as="targetPoint" />
          </mxGeometry>
        </mxCell>
        <mxCell id="cMllE6r7DTJcGbb2FHrs-16" value="" style="endArrow=none;html=1;entryX=0.5;entryY=1;entryDx=0;entryDy=0;exitX=0.5;exitY=0;exitDx=0;exitDy=0;" edge="1" parent="1" source="9EKVIyOOfx1yKH4zafNA-6" target="9EKVIyOOfx1yKH4zafNA-1">
          <mxGeometry width="50" height="50" relative="1" as="geometry">
            <mxPoint x="380" y="460" as="sourcePoint" />
            <mxPoint x="430" y="410" as="targetPoint" />
          </mxGeometry>
        </mxCell>
        <mxCell id="cMllE6r7DTJcGbb2FHrs-20" value="&lt;font style=&quot;font-size: 18px&quot;&gt;Tipo&lt;/font&gt;" style="ellipse;whiteSpace=wrap;html=1;" vertex="1" parent="1">
          <mxGeometry x="460" y="700" width="80" height="40" as="geometry" />
        </mxCell>
        <mxCell id="cMllE6r7DTJcGbb2FHrs-21" value="" style="endArrow=none;html=1;exitX=1;exitY=0;exitDx=0;exitDy=0;entryX=0;entryY=0;entryDx=0;entryDy=0;" edge="1" parent="1" source="9EKVIyOOfx1yKH4zafNA-1" target="9EKVIyOOfx1yKH4zafNA-5">
          <mxGeometry width="50" height="50" relative="1" as="geometry">
            <mxPoint x="340" y="410" as="sourcePoint" />
            <mxPoint x="390" y="360" as="targetPoint" />
          </mxGeometry>
        </mxCell>
        <mxCell id="cMllE6r7DTJcGbb2FHrs-22" value="" style="endArrow=none;html=1;entryX=0;entryY=0.5;entryDx=0;entryDy=0;exitX=1;exitY=0.5;exitDx=0;exitDy=0;" edge="1" parent="1" source="9EKVIyOOfx1yKH4zafNA-5" target="9EKVIyOOfx1yKH4zafNA-4">
          <mxGeometry width="50" height="50" relative="1" as="geometry">
            <mxPoint x="650" y="400" as="sourcePoint" />
            <mxPoint x="390" y="360" as="targetPoint" />
          </mxGeometry>
        </mxCell>
        <mxCell id="cMllE6r7DTJcGbb2FHrs-23" value="" style="endArrow=none;html=1;exitX=1;exitY=0;exitDx=0;exitDy=0;entryX=0;entryY=1;entryDx=0;entryDy=0;" edge="1" parent="1" target="9EKVIyOOfx1yKH4zafNA-5">
          <mxGeometry width="50" height="50" relative="1" as="geometry">
            <mxPoint x="215" y="430" as="sourcePoint" />
            <mxPoint x="440" y="430" as="targetPoint" />
          </mxGeometry>
        </mxCell>
        <mxCell id="cMllE6r7DTJcGbb2FHrs-24" value="&lt;font style=&quot;font-size: 18px&quot;&gt;Destino&lt;/font&gt;" style="rhombus;whiteSpace=wrap;html=1;" vertex="1" parent="1">
          <mxGeometry x="260" y="410" width="130" height="40" as="geometry" />
        </mxCell>
        <mxCell id="cMllE6r7DTJcGbb2FHrs-28" value="&lt;font style=&quot;font-size: 18px&quot;&gt;Origem&lt;/font&gt;" style="rhombus;whiteSpace=wrap;html=1;" vertex="1" parent="1">
          <mxGeometry x="260" y="350" width="130" height="40" as="geometry" />
        </mxCell>
        <mxCell id="cMllE6r7DTJcGbb2FHrs-30" value="&lt;font style=&quot;font-size: 18px&quot;&gt;Nome&lt;/font&gt;" style="ellipse;whiteSpace=wrap;html=1;" vertex="1" parent="1">
          <mxGeometry x="1010" y="310" width="80" height="40" as="geometry" />
        </mxCell>
        <mxCell id="cMllE6r7DTJcGbb2FHrs-31" value="&lt;font style=&quot;font-size: 18px&quot;&gt;Estado&lt;/font&gt;" style="ellipse;whiteSpace=wrap;html=1;" vertex="1" parent="1">
          <mxGeometry x="850" y="250" width="80" height="40" as="geometry" />
        </mxCell>
        <mxCell id="cMllE6r7DTJcGbb2FHrs-32" value="&lt;font style=&quot;font-size: 18px&quot;&gt;País&lt;/font&gt;" style="ellipse;whiteSpace=wrap;html=1;" vertex="1" parent="1">
          <mxGeometry x="850" y="190" width="80" height="40" as="geometry" />
        </mxCell>
        <mxCell id="cMllE6r7DTJcGbb2FHrs-33" value="" style="endArrow=none;html=1;entryX=0.5;entryY=0;entryDx=0;entryDy=0;exitX=0.5;exitY=1;exitDx=0;exitDy=0;" edge="1" parent="1" source="cMllE6r7DTJcGbb2FHrs-30" target="9EKVIyOOfx1yKH4zafNA-4">
          <mxGeometry width="50" height="50" relative="1" as="geometry">
            <mxPoint x="890" y="350" as="sourcePoint" />
            <mxPoint x="840" y="310" as="targetPoint" />
          </mxGeometry>
        </mxCell>
        <mxCell id="cMllE6r7DTJcGbb2FHrs-36" value="" style="endArrow=none;html=1;entryX=0.5;entryY=1;entryDx=0;entryDy=0;exitX=0.5;exitY=0;exitDx=0;exitDy=0;" edge="1" parent="1" source="cMllE6r7DTJcGbb2FHrs-30" target="cMllE6r7DTJcGbb2FHrs-31">
          <mxGeometry width="50" height="50" relative="1" as="geometry">
            <mxPoint x="890" y="330" as="sourcePoint" />
            <mxPoint x="890" y="280" as="targetPoint" />
          </mxGeometry>
        </mxCell>
        <mxCell id="cMllE6r7DTJcGbb2FHrs-37" value="" style="endArrow=none;html=1;entryX=0.5;entryY=1;entryDx=0;entryDy=0;exitX=0.5;exitY=0;exitDx=0;exitDy=0;" edge="1" parent="1" source="cMllE6r7DTJcGbb2FHrs-31" target="cMllE6r7DTJcGbb2FHrs-32">
          <mxGeometry width="50" height="50" relative="1" as="geometry">
            <mxPoint x="790" y="360" as="sourcePoint" />
            <mxPoint x="840" y="310" as="targetPoint" />
          </mxGeometry>
        </mxCell>
      </root>
    </mxGraphModel>
  </diagram>
</mxfile>
